<svg width="1920" height="738" viewBox="0 0 1920 738" fill="none" xmlns="http://www.w3.org/2000/svg">
<g opacity="0.1" filter="url(#filter0_df_545_193)">
<path d="M571.947 291.275H507.373C497.154 291.275 488.794 299.629 488.794 309.85V374.409C488.794 384.63 497.154 392.985 507.373 392.985H571.947C582.166 392.985 590.524 384.63 590.524 374.409V309.85C590.524 299.629 582.166 291.275 571.947 291.275Z" fill="#686868"/>
<path d="M847.03 665.158H814.57C809.439 665.158 805.233 669.37 805.233 674.489V706.965C805.233 712.101 809.439 716.296 814.57 716.296H847.03C852.172 716.296 856.367 712.101 856.367 706.965V674.489C856.367 669.37 852.172 665.158 847.03 665.158Z" fill="#4B4B4B"/>
<path d="M947.484 124.133H880.409C869.802 124.133 861.115 132.813 861.115 143.427V210.503C861.115 221.117 869.802 229.797 880.409 229.797H947.484C958.097 229.797 966.778 221.117 966.778 210.503V143.427C966.778 132.813 958.097 124.133 947.484 124.133Z" fill="#868686"/>
<path d="M1371 82.2917H1303.93C1293.31 82.2917 1284.63 90.9715 1284.63 101.586V168.645C1284.63 179.259 1293.31 187.939 1303.93 187.939H1371C1381.6 187.939 1390.3 179.259 1390.3 168.645V101.586C1390.3 90.9715 1381.6 82.2917 1371 82.2917Z" fill="#868686"/>
<path d="M1917.84 147.348H1868.48C1860.68 147.348 1854.29 153.733 1854.29 161.54V210.897C1854.29 218.721 1860.68 225.107 1868.48 225.107H1917.84C1925.65 225.107 1932.03 218.721 1932.03 210.897V161.54C1932.03 153.733 1925.65 147.348 1917.84 147.348Z" fill="#868686"/>
<path d="M202.771 424.006H141.774C132.125 424.006 124.226 431.916 124.226 441.554V502.553C124.226 512.208 132.125 520.101 141.774 520.101H202.771C212.421 520.101 220.312 512.208 220.312 502.553V441.554C220.312 431.916 212.421 424.006 202.771 424.006Z" fill="#868686"/>
<path d="M1156.55 113.878H1061.73C1046.73 113.878 1034.46 126.153 1034.46 141.15V235.978C1034.46 250.975 1046.73 263.25 1061.73 263.25H1156.55C1171.57 263.25 1183.84 250.975 1183.84 235.978V141.15C1183.84 126.153 1171.57 113.878 1156.55 113.878Z" fill="#4B4B4B"/>
<path d="M1316.12 618.541H1302.81C1300.7 618.541 1298.98 616.811 1298.98 614.706V601.421C1298.98 599.315 1300.7 597.586 1302.81 597.586H1316.12C1318.22 597.586 1319.94 599.315 1319.94 601.421V614.706C1319.94 616.811 1318.22 618.541 1316.12 618.541Z" fill="#A4A4A4"/>
<path d="M1774.46 242.004H1747.5C1743.23 242.004 1739.74 245.513 1739.74 249.776V276.74C1739.74 281.003 1743.23 284.495 1747.5 284.495H1774.46C1778.72 284.495 1782.22 281.003 1782.22 276.74V249.776C1782.22 245.513 1778.72 242.004 1774.46 242.004Z" fill="#4B4B4B"/>
<path d="M1025.04 431.402H1006.97C1004.11 431.402 1001.79 433.713 1001.79 436.59V454.651C1001.79 457.51 1004.11 459.856 1006.97 459.856H1025.04C1027.9 459.856 1030.24 457.51 1030.24 454.651V436.59C1030.24 433.713 1027.9 431.402 1025.04 431.402Z" fill="#4B4B4B"/>
<path d="M421.025 549.41H390.435C385.594 549.41 381.643 553.365 381.643 558.193V588.786C381.643 593.631 385.594 597.586 390.435 597.586H421.025C425.86 597.586 429.825 593.631 429.825 588.786V558.193C429.825 553.365 425.86 549.41 421.025 549.41Z" fill="#686868"/>
<path d="M1556.11 710.595H1542.32C1540.14 710.595 1538.36 708.814 1538.36 706.64V692.841C1538.36 690.65 1540.14 688.87 1542.32 688.87H1556.11C1558.29 688.87 1560.07 690.65 1560.07 692.841V706.64C1560.07 708.814 1558.29 710.595 1556.11 710.595Z" fill="#A4A4A4"/>
<path d="M149.263 181.348H69.2754C56.6152 181.348 46.2627 191.688 46.2627 204.357V284.342C46.2627 297.01 56.6152 307.351 69.2754 307.351H149.263C161.924 307.351 172.269 297.01 172.269 284.342V204.357C172.269 191.688 161.924 181.348 149.263 181.348Z" fill="#686868"/>
<path d="M199.687 672.708H188.246C186.439 672.708 184.962 674.181 184.962 675.995V687.432C184.962 689.246 186.439 690.719 188.246 690.719H199.687C201.507 690.719 202.984 689.246 202.984 687.432V675.995C202.984 674.181 201.507 672.708 199.687 672.708Z" fill="#686868"/>
<path d="M1082.37 623.146H1063.23C1060.2 623.146 1057.73 620.664 1057.73 617.633V598.493C1057.73 595.463 1060.2 592.981 1063.23 592.981H1082.37C1085.4 592.981 1087.87 595.463 1087.87 598.493V617.633C1087.87 620.664 1085.4 623.146 1082.37 623.146Z" fill="#868686"/>
<path d="M249.71 285.608H213.972C208.321 285.608 203.7 290.214 203.7 295.88V331.61C203.7 337.259 208.321 341.882 213.972 341.882H249.71C255.361 341.882 259.982 337.259 259.982 331.61V295.88C259.982 290.214 255.361 285.608 249.71 285.608Z" fill="#868686"/>
<path d="M251.169 13.9999H136.764C118.675 13.9999 103.87 28.8088 103.87 46.9046V161.3C103.87 179.396 118.675 194.205 136.764 194.205H251.169C269.265 194.205 284.07 179.396 284.07 161.3V46.9046C284.07 28.8088 269.265 13.9999 251.169 13.9999Z" fill="#868686"/>
<path d="M54.6966 350.51H12.2237C5.50407 350.51 0 356.023 0 362.734V405.208C0 411.937 5.50407 417.432 12.2237 417.432H54.6966C61.4179 417.432 66.922 411.937 66.922 405.208V362.734C66.922 356.023 61.4179 350.51 54.6966 350.51Z" fill="#4B4B4B"/>
<path d="M41.1064 525.322H25.8132C23.3992 525.322 21.4185 527.291 21.4185 529.722V544.993C21.4185 547.424 23.3992 549.41 25.8132 549.41H41.1064C43.5221 549.41 45.5011 547.424 45.5011 544.993V529.722C45.5011 527.291 43.5221 525.322 41.1064 525.322Z" fill="#4B4B4B"/>
<path d="M625.133 629.463H609.847C607.419 629.463 605.445 631.432 605.445 633.863V649.151C605.445 651.565 607.419 653.551 609.847 653.551H625.133C627.547 653.551 629.528 651.565 629.528 649.151V633.863C629.528 631.432 627.547 629.463 625.133 629.463Z" fill="#4B4B4B"/>
<path d="M1174.21 724H1161.9C1159.95 724 1158.36 722.408 1158.36 720.456V708.164C1158.36 706.212 1159.95 704.62 1161.9 704.62H1174.21C1176.16 704.62 1177.75 706.212 1177.75 708.164V720.456C1177.75 722.408 1176.16 724 1174.21 724Z" fill="#A4A4A4"/>
<path d="M292.149 491.682H265.192C260.925 491.682 257.435 495.174 257.435 499.437V526.401C257.435 530.664 260.925 534.156 265.192 534.156H292.149C296.422 534.156 299.906 530.664 299.906 526.401V499.437C299.906 495.174 296.422 491.682 292.149 491.682Z" fill="#868686"/>
<path d="M409.675 192.63H353.594C344.712 192.63 337.463 199.889 337.463 208.757V264.842C337.463 273.727 344.712 280.986 353.594 280.986H409.675C418.556 280.986 425.811 273.727 425.811 264.842V208.757C425.811 199.889 418.556 192.63 409.675 192.63Z" fill="#686868"/>
<path d="M824.588 277.134H697.833C677.777 277.134 661.366 293.535 661.366 313.599V440.339C661.366 460.386 677.777 476.804 697.833 476.804H824.588C844.644 476.804 861.042 460.386 861.042 440.339V313.599C861.042 293.535 844.644 277.134 824.588 277.134Z" fill="#686868"/>
</g>
<defs>
<filter id="filter0_df_545_193" x="-14" y="-0.00012207" width="1960.03" height="738" filterUnits="userSpaceOnUse" color-interpolation-filters="sRGB">
<feFlood flood-opacity="0" result="BackgroundImageFix"/>
<feColorMatrix in="SourceAlpha" type="matrix" values="0 0 0 0 0 0 0 0 0 0 0 0 0 0 0 0 0 0 127 0" result="hardAlpha"/>
<feOffset dy="4"/>
<feGaussianBlur stdDeviation="2"/>
<feComposite in2="hardAlpha" operator="out"/>
<feColorMatrix type="matrix" values="0 0 0 0 0 0 0 0 0 0 0 0 0 0 0 0 0 0 0.25 0"/>
<feBlend mode="normal" in2="BackgroundImageFix" result="effect1_dropShadow_545_193"/>
<feBlend mode="normal" in="SourceGraphic" in2="effect1_dropShadow_545_193" result="shape"/>
<feGaussianBlur stdDeviation="7" result="effect2_foregroundBlur_545_193"/>
</filter>
</defs>
</svg>
