<svg width="504" height="228" viewBox="0 0 504 228" fill="none" xmlns="http://www.w3.org/2000/svg">
<path d="M476.952 133.3L342.651 93.7995M476.952 93.7995L342.651 54.2991M342.651 133.3L476.952 93.7995M342.651 172.8L476.952 133.3M476.952 133.3L342.651 54.2991M476.952 93.7995L342.651 14.7988M342.651 172.8L476.952 93.7995M342.651 212.332L476.952 133.331M342.651 212.332L476.952 93.8311M476.952 133.3L342.651 14.7988M342.651 133.3H476.952M342.651 93.7995H476.952" stroke="#5A5A5A" stroke-width="2"/>
<path d="M488.801 146.097C481.733 146.097 476.003 140.367 476.003 133.299C476.003 126.231 481.733 120.501 488.801 120.501C495.87 120.501 501.6 126.231 501.6 133.299C501.6 140.367 495.87 146.097 488.801 146.097Z" stroke="#5A5A5A" stroke-width="4"/>
<path d="M488.801 106.597C481.733 106.597 476.003 100.867 476.003 93.7991C476.003 86.7309 481.733 81.001 488.801 81.001C495.87 81.001 501.6 86.7309 501.6 93.7991C501.6 100.867 495.87 106.597 488.801 106.597Z" stroke="#5A5A5A" stroke-width="4"/>
<path d="M26.6484 172.8L160.949 133.3M26.6484 133.3L160.949 93.7995M26.6484 93.7995L160.949 54.2991M26.6484 54.2991L160.949 14.7988M160.949 93.7995L26.6484 54.2991M160.949 133.3L26.6484 93.7995M160.949 172.8L26.6484 133.3M160.949 212.332L26.6484 172.8M26.6484 172.8L160.949 93.7995M26.6484 133.3L160.949 54.2991M26.6484 93.7995L160.949 14.7988M160.949 133.3L26.6484 54.2991M160.949 172.8L26.6484 93.7995M160.949 212.332L26.6484 133.3M160.949 212.332L26.6484 93.7995M160.949 172.8L26.6484 54.2991M26.6484 133.3L160.949 14.7988M26.6484 172.8L160.949 54.2991M26.6484 172.8L160.949 14.7988M160.949 212.332L26.6484 54.2991M160.949 172.8H26.6484M160.949 133.3H26.6484M160.949 93.7995H26.6484M160.949 54.2991H26.6484" stroke="#5A5A5A" stroke-width="2"/>
<path d="M14.7981 146.098C21.8663 146.098 27.5962 140.368 27.5962 133.3C27.5962 126.232 21.8663 120.502 14.7981 120.502C7.72991 120.502 2 126.232 2 133.3C2 140.368 7.72991 146.098 14.7981 146.098Z" stroke="#5A5A5A" stroke-width="4"/>
<path d="M14.7981 185.598C21.8663 185.598 27.5962 179.868 27.5962 172.8C27.5962 165.732 21.8663 160.002 14.7981 160.002C7.72991 160.002 2 165.732 2 172.8C2 179.868 7.72991 185.598 14.7981 185.598Z" stroke="#5A5A5A" stroke-width="4"/>
<path d="M14.7981 106.597C21.8663 106.597 27.5962 100.867 27.5962 93.7991C27.5962 86.7309 21.8663 81.001 14.7981 81.001C7.72991 81.001 2 86.7309 2 93.7991C2 100.867 7.72991 106.597 14.7981 106.597Z" stroke="#5A5A5A" stroke-width="4"/>
<path d="M14.7981 67.0972C21.8663 67.0972 27.5962 61.3673 27.5962 54.2991C27.5962 47.2309 21.8663 41.501 14.7981 41.501C7.72991 41.501 2 47.2309 2 54.2991C2 61.3673 7.72991 67.0972 14.7981 67.0972Z" stroke="#5A5A5A" stroke-width="4"/>
<path d="M318.95 212.332L184.649 172.832M318.95 172.8L184.649 133.3M318.95 133.3L184.649 93.7995M318.95 93.7995L184.649 54.2991M318.95 54.2991L184.649 14.7988M184.649 54.2991L318.95 14.7988M184.649 93.7995L318.95 54.2991M184.649 133.3L318.95 93.7995M184.649 172.8L318.95 133.3M184.649 212.332L318.95 172.832M318.95 212.332L184.649 133.331M318.95 172.8L184.649 93.7995M318.95 133.3L184.649 54.2991M318.95 93.7995L184.649 14.7988M184.649 93.7995L318.95 14.7988M184.649 133.3L318.95 54.2991M184.649 172.8L318.95 93.7995M184.649 212.332L318.95 133.331M184.649 212.332L318.95 93.8311M184.649 172.8L318.95 54.2991M184.649 133.3L318.95 14.7988M318.95 133.3L184.649 14.7988M318.95 172.8L184.649 54.2991M318.95 212.332L184.649 93.8311M318.95 212.332L184.649 54.3308M318.95 172.8L184.649 14.7988M184.649 172.8L318.95 14.7988M184.649 212.332L318.95 54.3308M318.95 212.332L184.649 14.8305M184.649 212.332L318.95 14.8305M184.649 212.332H318.95M184.649 172.8H318.95M184.649 133.3H318.95M184.649 93.7995H318.95M184.649 54.2991H318.95M184.649 14.7988H318.95" stroke="#5A5A5A" stroke-width="2"/>
<path d="M330.8 225.129C323.732 225.129 318.002 219.4 318.002 212.331C318.002 205.263 323.732 199.533 330.8 199.533C337.868 199.533 343.598 205.263 343.598 212.331C343.598 219.4 337.868 225.129 330.8 225.129Z" stroke="#5A5A5A" stroke-width="4"/>
<path d="M330.8 146.097C323.732 146.097 318.002 140.367 318.002 133.299C318.002 126.231 323.732 120.501 330.8 120.501C337.868 120.501 343.598 126.231 343.598 133.299C343.598 140.367 337.868 146.097 330.8 146.097Z" stroke="#5A5A5A" stroke-width="4"/>
<path d="M330.8 185.597C323.732 185.597 318.002 179.867 318.002 172.799C318.002 165.731 323.732 160.001 330.8 160.001C337.868 160.001 343.598 165.731 343.598 172.799C343.598 179.867 337.868 185.597 330.8 185.597Z" stroke="#5A5A5A" stroke-width="4"/>
<path d="M330.8 106.597C323.732 106.597 318.002 100.867 318.002 93.7991C318.002 86.7309 323.732 81.001 330.8 81.001C337.868 81.001 343.598 86.7309 343.598 93.7991C343.598 100.867 337.868 106.597 330.8 106.597Z" stroke="#5A5A5A" stroke-width="4"/>
<path d="M330.8 67.0962C323.732 67.0962 318.002 61.3663 318.002 54.2981C318.002 47.2299 323.732 41.5 330.8 41.5C337.868 41.5 343.598 47.2299 343.598 54.2981C343.598 61.3663 337.868 67.0962 330.8 67.0962Z" stroke="#5A5A5A" stroke-width="4"/>
<path d="M330.8 27.5962C323.732 27.5962 318.002 21.8663 318.002 14.7981C318.002 7.72992 323.732 2 330.8 2C337.868 2 343.598 7.72992 343.598 14.7981C343.598 21.8663 337.868 27.5962 330.8 27.5962Z" stroke="#5A5A5A" stroke-width="4"/>
<path d="M172.799 225.129C179.867 225.129 185.597 219.4 185.597 212.331C185.597 205.263 179.867 199.533 172.799 199.533C165.731 199.533 160.001 205.263 160.001 212.331C160.001 219.4 165.731 225.129 172.799 225.129Z" stroke="#5A5A5A" stroke-width="4"/>
<path d="M172.799 146.097C179.867 146.097 185.597 140.367 185.597 133.299C185.597 126.231 179.867 120.501 172.799 120.501C165.731 120.501 160.001 126.231 160.001 133.299C160.001 140.367 165.731 146.097 172.799 146.097Z" stroke="#5A5A5A" stroke-width="4"/>
<path d="M172.799 185.597C179.867 185.597 185.597 179.867 185.597 172.799C185.597 165.731 179.867 160.001 172.799 160.001C165.731 160.001 160.001 165.731 160.001 172.799C160.001 179.867 165.731 185.597 172.799 185.597Z" stroke="#5A5A5A" stroke-width="4"/>
<path d="M172.799 106.597C179.867 106.597 185.597 100.867 185.597 93.7991C185.597 86.7309 179.867 81.001 172.799 81.001C165.731 81.001 160.001 86.7309 160.001 93.7991C160.001 100.867 165.731 106.597 172.799 106.597Z" stroke="#5A5A5A" stroke-width="4"/>
<path d="M172.799 67.0962C179.867 67.0962 185.597 61.3663 185.597 54.2981C185.597 47.2299 179.867 41.5 172.799 41.5C165.731 41.5 160.001 47.2299 160.001 54.2981C160.001 61.3663 165.731 67.0962 172.799 67.0962Z" stroke="#5A5A5A" stroke-width="4"/>
<path d="M172.799 27.5962C179.867 27.5962 185.597 21.8663 185.597 14.7981C185.597 7.72992 179.867 2 172.799 2C165.731 2 160.001 7.72992 160.001 14.7981C160.001 21.8663 165.731 27.5962 172.799 27.5962Z" stroke="#5A5A5A" stroke-width="4"/>
</svg>
